<?xml version="1.0" encoding="UTF-8" standalone="no"?><svg xmlns="http://www.w3.org/2000/svg" xmlns:xlink="http://www.w3.org/1999/xlink" contentStyleType="text/css" height="485px" preserveAspectRatio="none" style="width:1526px;height:485px;background:#FFFFFF;" version="1.1" viewBox="0 0 1526 485" width="1526px" zoomAndPan="magnify"><defs/><g><!--MD5=[19cfe72586b7d42db67d71afc75a0e8e]
cluster datalog--><g id="cluster_datalog"><path d="M8.5,6 L72.5,6 A3.75,3.75 0 0 1 75,8.5 L82,28.2969 L1516.5,28.2969 A2.5,2.5 0 0 1 1519,30.7969 L1519,475.5 A2.5,2.5 0 0 1 1516.5,478 L8.5,478 A2.5,2.5 0 0 1 6,475.5 L6,8.5 A2.5,2.5 0 0 1 8.5,6 " style="stroke:#000000;stroke-width:1.5;fill:none;"/><line style="stroke:#000000;stroke-width:1.5;fill:none;" x1="6" x2="82" y1="28.2969" y2="28.2969"/><text fill="#000000" font-family="sans-serif" font-size="14" font-weight="bold" lengthAdjust="spacing" textLength="63" x="10" y="20.9951">datalog</text></g><!--MD5=[134e907e6cf414437f990521d1b8a4fe]
cluster grammar--><g id="cluster_grammar"><path d="M32.5,49 L107.5,49 A3.75,3.75 0 0 1 110,51.5 L117,71.2969 L1492.5,71.2969 A2.5,2.5 0 0 1 1495,73.7969 L1495,451.5 A2.5,2.5 0 0 1 1492.5,454 L32.5,454 A2.5,2.5 0 0 1 30,451.5 L30,51.5 A2.5,2.5 0 0 1 32.5,49 " style="stroke:#000000;stroke-width:1.5;fill:none;"/><line style="stroke:#000000;stroke-width:1.5;fill:none;" x1="30" x2="117" y1="71.2969" y2="71.2969"/><text fill="#000000" font-family="sans-serif" font-size="14" font-weight="bold" lengthAdjust="spacing" textLength="74" x="34" y="63.9951">grammar</text></g><!--MD5=[2f073fe683ac4e92887bb6ecd462881e]
class DatalogFormula--><g id="elem_DatalogFormula"><rect codeLine="8" fill="#F1F1F1" height="96.8906" id="DatalogFormula" rx="2.5" ry="2.5" style="stroke:#181818;stroke-width:0.5;" width="173" x="46" y="258.5"/><ellipse cx="73.6" cy="274.5" fill="#ADD1B2" rx="11" ry="11" style="stroke:#181818;stroke-width:1.0;"/><path d="M75.9438,270.1719 C75.0063,269.7344 74.4125,269.5938 73.5375,269.5938 C70.9125,269.5938 68.9125,271.6719 68.9125,274.3906 L68.9125,275.5156 C68.9125,278.0938 71.0219,279.9844 73.9125,279.9844 C75.1313,279.9844 76.2875,279.6875 77.0375,279.1406 C77.6156,278.7344 77.9438,278.2813 77.9438,277.8906 C77.9438,277.4375 77.5531,277.0469 77.0844,277.0469 C76.8656,277.0469 76.6625,277.125 76.475,277.3125 C76.0219,277.7969 76.0219,277.7969 75.8344,277.8906 C75.4125,278.1563 74.725,278.2813 73.9594,278.2813 C71.9125,278.2813 70.6156,277.1875 70.6156,275.4844 L70.6156,274.3906 C70.6156,272.6094 71.8656,271.2969 73.6,271.2969 C74.1781,271.2969 74.7875,271.4531 75.2563,271.7031 C75.7406,271.9844 75.9125,272.2031 76.0063,272.6094 C76.0688,273.0156 76.1,273.1406 76.2406,273.2656 C76.3813,273.4063 76.6156,273.5156 76.8344,273.5156 C77.1,273.5156 77.3656,273.375 77.5375,273.1563 C77.6469,273 77.6781,272.8125 77.6781,272.3906 L77.6781,270.9688 C77.6781,270.5313 77.6625,270.4063 77.5688,270.25 C77.4125,269.9844 77.1313,269.8438 76.8344,269.8438 C76.5375,269.8438 76.3344,269.9375 76.1156,270.25 L75.9438,270.1719 Z " fill="#000000"/><text fill="#000000" font-family="sans-serif" font-size="14" lengthAdjust="spacing" textLength="113" x="90.4" y="279.3467">DatalogFormula</text><line style="stroke:#181818;stroke-width:0.5;" x1="47" x2="218" y1="290.5" y2="290.5"/><ellipse cx="57" cy="301.5" fill="none" rx="3" ry="3" style="stroke:#038048;stroke-width:1.0;"/><text fill="#000000" font-family="sans-serif" font-size="14" lengthAdjust="spacing" textLength="147" x="66" y="307.4951">lhs: DefinitionClause</text><ellipse cx="57" cy="317.7969" fill="none" rx="3" ry="3" style="stroke:#038048;stroke-width:1.0;"/><text fill="#000000" font-family="sans-serif" font-size="14" lengthAdjust="spacing" textLength="77" x="66" y="323.792">rhs: Clause</text><ellipse cx="57" cy="334.0938" fill="none" rx="3" ry="3" style="stroke:#038048;stroke-width:1.0;"/><text fill="#000000" font-family="sans-serif" font-size="14" lengthAdjust="spacing" textLength="72" x="66" y="340.0889">op: String</text><line style="stroke:#181818;stroke-width:0.5;" x1="47" x2="218" y1="347.3906" y2="347.3906"/></g><!--MD5=[695bd8c5cb94a2a7f2edaf37a1bbe4fd]
class DefinitionClause--><g id="elem_DefinitionClause"><rect codeLine="14" fill="#F1F1F1" height="80.5938" id="DefinitionClause" rx="2.5" ry="2.5" style="stroke:#181818;stroke-width:0.5;" width="162" x="279" y="316.5"/><ellipse cx="299.4" cy="332.5" fill="#ADD1B2" rx="11" ry="11" style="stroke:#181818;stroke-width:1.0;"/><path d="M301.7438,328.1719 C300.8063,327.7344 300.2125,327.5938 299.3375,327.5938 C296.7125,327.5938 294.7125,329.6719 294.7125,332.3906 L294.7125,333.5156 C294.7125,336.0938 296.8219,337.9844 299.7125,337.9844 C300.9313,337.9844 302.0875,337.6875 302.8375,337.1406 C303.4156,336.7344 303.7438,336.2813 303.7438,335.8906 C303.7438,335.4375 303.3531,335.0469 302.8844,335.0469 C302.6656,335.0469 302.4625,335.125 302.275,335.3125 C301.8219,335.7969 301.8219,335.7969 301.6344,335.8906 C301.2125,336.1563 300.525,336.2813 299.7594,336.2813 C297.7125,336.2813 296.4156,335.1875 296.4156,333.4844 L296.4156,332.3906 C296.4156,330.6094 297.6656,329.2969 299.4,329.2969 C299.9781,329.2969 300.5875,329.4531 301.0563,329.7031 C301.5406,329.9844 301.7125,330.2031 301.8063,330.6094 C301.8688,331.0156 301.9,331.1406 302.0406,331.2656 C302.1813,331.4063 302.4156,331.5156 302.6344,331.5156 C302.9,331.5156 303.1656,331.375 303.3375,331.1563 C303.4469,331 303.4781,330.8125 303.4781,330.3906 L303.4781,328.9688 C303.4781,328.5313 303.4625,328.4063 303.3688,328.25 C303.2125,327.9844 302.9313,327.8438 302.6344,327.8438 C302.3375,327.8438 302.1344,327.9375 301.9156,328.25 L301.7438,328.1719 Z " fill="#000000"/><text fill="#000000" font-family="sans-serif" font-size="14" lengthAdjust="spacing" textLength="118" x="314.6" y="337.3467">DefinitionClause</text><line style="stroke:#181818;stroke-width:0.5;" x1="280" x2="440" y1="348.5" y2="348.5"/><ellipse cx="290" cy="359.5" fill="none" rx="3" ry="3" style="stroke:#038048;stroke-width:1.0;"/><text fill="#000000" font-family="sans-serif" font-size="14" lengthAdjust="spacing" textLength="136" x="299" y="365.4951">predication: String</text><ellipse cx="290" cy="375.7969" fill="none" rx="3" ry="3" style="stroke:#038048;stroke-width:1.0;"/><text fill="#000000" font-family="sans-serif" font-size="14" lengthAdjust="spacing" textLength="104" x="299" y="381.792">arg: Argument</text><line style="stroke:#181818;stroke-width:0.5;" x1="280" x2="440" y1="389.0938" y2="389.0938"/></g><!--MD5=[3d9a9201f4e3c24a3b32edb25b35db95]
class Clause--><g id="elem_Clause"><rect codeLine="19" fill="#F1F1F1" height="48" id="Clause" rx="2.5" ry="2.5" style="stroke:#181818;stroke-width:0.5;" width="80" x="320" y="224"/><ellipse cx="335" cy="240" fill="#B4A7E5" rx="11" ry="11" style="stroke:#181818;stroke-width:1.0;"/><path d="M335.9531,236.7813 L337.6719,236.7813 C338.0625,236.7813 338.25,236.75 338.375,236.6719 C338.6406,236.5156 338.7813,236.2344 338.7813,235.9375 C338.7813,235.6719 338.6719,235.4063 338.4375,235.2344 C338.2656,235.125 338.125,235.0938 337.6719,235.0938 L332.5313,235.0938 C332.0938,235.0938 331.9688,235.1094 331.8125,235.2031 C331.5625,235.3594 331.4063,235.6563 331.4063,235.9375 C331.4063,236.2188 331.5469,236.4688 331.7656,236.6406 C331.9219,236.75 332.1094,236.7813 332.5313,236.7813 L334.25,236.7813 L334.25,243.2969 L332.5313,243.2969 C332.0938,243.2969 331.9688,243.3125 331.8125,243.4219 C331.5625,243.5781 331.4063,243.8594 331.4063,244.1563 C331.4063,244.4063 331.5469,244.6719 331.7656,244.8281 C331.9219,244.9531 332.125,245 332.5313,245 L337.6719,245 C338.4219,245 338.7813,244.7188 338.7813,244.1563 C338.7813,243.875 338.6719,243.625 338.4375,243.4531 C338.2656,243.3281 338.125,243.2969 337.6719,243.2969 L335.9531,243.2969 L335.9531,236.7813 Z " fill="#000000"/><text fill="#000000" font-family="sans-serif" font-size="14" font-style="italic" lengthAdjust="spacing" textLength="48" x="349" y="244.8467">Clause</text><line style="stroke:#181818;stroke-width:0.5;" x1="321" x2="399" y1="256" y2="256"/><line style="stroke:#181818;stroke-width:0.5;" x1="321" x2="399" y1="264" y2="264"/></g><!--MD5=[3637e2e3ff64f8c7ec072f5df5e3a1dc]
class Expression--><g id="elem_Expression"><rect codeLine="22" fill="#F1F1F1" height="96.8906" id="Expression" rx="2.5" ry="2.5" style="stroke:#181818;stroke-width:0.5;" width="110" x="501" y="84.5"/><ellipse cx="516" cy="100.5" fill="#ADD1B2" rx="11" ry="11" style="stroke:#181818;stroke-width:1.0;"/><path d="M518.3438,96.1719 C517.4063,95.7344 516.8125,95.5938 515.9375,95.5938 C513.3125,95.5938 511.3125,97.6719 511.3125,100.3906 L511.3125,101.5156 C511.3125,104.0938 513.4219,105.9844 516.3125,105.9844 C517.5313,105.9844 518.6875,105.6875 519.4375,105.1406 C520.0156,104.7344 520.3438,104.2813 520.3438,103.8906 C520.3438,103.4375 519.9531,103.0469 519.4844,103.0469 C519.2656,103.0469 519.0625,103.125 518.875,103.3125 C518.4219,103.7969 518.4219,103.7969 518.2344,103.8906 C517.8125,104.1563 517.125,104.2813 516.3594,104.2813 C514.3125,104.2813 513.0156,103.1875 513.0156,101.4844 L513.0156,100.3906 C513.0156,98.6094 514.2656,97.2969 516,97.2969 C516.5781,97.2969 517.1875,97.4531 517.6563,97.7031 C518.1406,97.9844 518.3125,98.2031 518.4063,98.6094 C518.4688,99.0156 518.5,99.1406 518.6406,99.2656 C518.7813,99.4063 519.0156,99.5156 519.2344,99.5156 C519.5,99.5156 519.7656,99.375 519.9375,99.1563 C520.0469,99 520.0781,98.8125 520.0781,98.3906 L520.0781,96.9688 C520.0781,96.5313 520.0625,96.4063 519.9688,96.25 C519.8125,95.9844 519.5313,95.8438 519.2344,95.8438 C518.9375,95.8438 518.7344,95.9375 518.5156,96.25 L518.3438,96.1719 Z " fill="#000000"/><text fill="#000000" font-family="sans-serif" font-size="14" lengthAdjust="spacing" textLength="78" x="530" y="105.3467">Expression</text><line style="stroke:#181818;stroke-width:0.5;" x1="502" x2="610" y1="116.5" y2="116.5"/><ellipse cx="512" cy="127.5" fill="none" rx="3" ry="3" style="stroke:#038048;stroke-width:1.0;"/><text fill="#000000" font-family="sans-serif" font-size="14" lengthAdjust="spacing" textLength="75" x="521" y="133.4951">lhs: Clause</text><ellipse cx="512" cy="143.7969" fill="none" rx="3" ry="3" style="stroke:#038048;stroke-width:1.0;"/><text fill="#000000" font-family="sans-serif" font-size="14" lengthAdjust="spacing" textLength="77" x="521" y="149.792">rhs: Clause</text><ellipse cx="512" cy="160.0938" fill="none" rx="3" ry="3" style="stroke:#038048;stroke-width:1.0;"/><text fill="#000000" font-family="sans-serif" font-size="14" lengthAdjust="spacing" textLength="72" x="521" y="166.0889">op: String</text><line style="stroke:#181818;stroke-width:0.5;" x1="502" x2="610" y1="173.3906" y2="173.3906"/></g><!--MD5=[27bfdb9e128171e0e365013b6b91e809]
class Literal--><g id="elem_Literal"><rect codeLine="29" fill="#F1F1F1" height="48" id="Literal" rx="2.5" ry="2.5" style="stroke:#181818;stroke-width:0.5;" width="77" x="517.5" y="254"/><ellipse cx="532.5" cy="270" fill="#B4A7E5" rx="11" ry="11" style="stroke:#181818;stroke-width:1.0;"/><path d="M533.4531,266.7813 L535.1719,266.7813 C535.5625,266.7813 535.75,266.75 535.875,266.6719 C536.1406,266.5156 536.2813,266.2344 536.2813,265.9375 C536.2813,265.6719 536.1719,265.4063 535.9375,265.2344 C535.7656,265.125 535.625,265.0938 535.1719,265.0938 L530.0313,265.0938 C529.5938,265.0938 529.4688,265.1094 529.3125,265.2031 C529.0625,265.3594 528.9063,265.6563 528.9063,265.9375 C528.9063,266.2188 529.0469,266.4688 529.2656,266.6406 C529.4219,266.75 529.6094,266.7813 530.0313,266.7813 L531.75,266.7813 L531.75,273.2969 L530.0313,273.2969 C529.5938,273.2969 529.4688,273.3125 529.3125,273.4219 C529.0625,273.5781 528.9063,273.8594 528.9063,274.1563 C528.9063,274.4063 529.0469,274.6719 529.2656,274.8281 C529.4219,274.9531 529.625,275 530.0313,275 L535.1719,275 C535.9219,275 536.2813,274.7188 536.2813,274.1563 C536.2813,273.875 536.1719,273.625 535.9375,273.4531 C535.7656,273.3281 535.625,273.2969 535.1719,273.2969 L533.4531,273.2969 L533.4531,266.7813 Z " fill="#000000"/><text fill="#000000" font-family="sans-serif" font-size="14" font-style="italic" lengthAdjust="spacing" textLength="45" x="546.5" y="274.8467">Literal</text><line style="stroke:#181818;stroke-width:0.5;" x1="518.5" x2="593.5" y1="286" y2="286"/><line style="stroke:#181818;stroke-width:0.5;" x1="518.5" x2="593.5" y1="294" y2="294"/></g><!--MD5=[0b05b186702a734612eaee2bfdb50978]
class Negation--><g id="elem_Negation"><rect codeLine="32" fill="#F1F1F1" height="64.2969" id="Negation" rx="2.5" ry="2.5" style="stroke:#181818;stroke-width:0.5;" width="125" x="673.5" y="84"/><ellipse cx="701.1" cy="100" fill="#ADD1B2" rx="11" ry="11" style="stroke:#181818;stroke-width:1.0;"/><path d="M703.4438,95.6719 C702.5063,95.2344 701.9125,95.0938 701.0375,95.0938 C698.4125,95.0938 696.4125,97.1719 696.4125,99.8906 L696.4125,101.0156 C696.4125,103.5938 698.5219,105.4844 701.4125,105.4844 C702.6313,105.4844 703.7875,105.1875 704.5375,104.6406 C705.1156,104.2344 705.4438,103.7813 705.4438,103.3906 C705.4438,102.9375 705.0531,102.5469 704.5844,102.5469 C704.3656,102.5469 704.1625,102.625 703.975,102.8125 C703.5219,103.2969 703.5219,103.2969 703.3344,103.3906 C702.9125,103.6563 702.225,103.7813 701.4594,103.7813 C699.4125,103.7813 698.1156,102.6875 698.1156,100.9844 L698.1156,99.8906 C698.1156,98.1094 699.3656,96.7969 701.1,96.7969 C701.6781,96.7969 702.2875,96.9531 702.7563,97.2031 C703.2406,97.4844 703.4125,97.7031 703.5063,98.1094 C703.5688,98.5156 703.6,98.6406 703.7406,98.7656 C703.8813,98.9063 704.1156,99.0156 704.3344,99.0156 C704.6,99.0156 704.8656,98.875 705.0375,98.6563 C705.1469,98.5 705.1781,98.3125 705.1781,97.8906 L705.1781,96.4688 C705.1781,96.0313 705.1625,95.9063 705.0688,95.75 C704.9125,95.4844 704.6313,95.3438 704.3344,95.3438 C704.0375,95.3438 703.8344,95.4375 703.6156,95.75 L703.4438,95.6719 Z " fill="#000000"/><text fill="#000000" font-family="sans-serif" font-size="14" lengthAdjust="spacing" textLength="65" x="717.9" y="104.8467">Negation</text><line style="stroke:#181818;stroke-width:0.5;" x1="674.5" x2="797.5" y1="116" y2="116"/><ellipse cx="684.5" cy="127" fill="none" rx="3" ry="3" style="stroke:#038048;stroke-width:1.0;"/><text fill="#000000" font-family="sans-serif" font-size="14" lengthAdjust="spacing" textLength="99" x="693.5" y="132.9951">clause: Clause</text><line style="stroke:#181818;stroke-width:0.5;" x1="674.5" x2="797.5" y1="140.2969" y2="140.2969"/></g><!--MD5=[e6dc55dd324d6a8c189f3ada02b144fc]
class Predicate--><g id="elem_Predicate"><rect codeLine="37" fill="#F1F1F1" height="48" id="Predicate" rx="2.5" ry="2.5" style="stroke:#181818;stroke-width:0.5;" width="99" x="506.5" y="337"/><ellipse cx="521.5" cy="353" fill="#B4A7E5" rx="11" ry="11" style="stroke:#181818;stroke-width:1.0;"/><path d="M522.4531,349.7813 L524.1719,349.7813 C524.5625,349.7813 524.75,349.75 524.875,349.6719 C525.1406,349.5156 525.2813,349.2344 525.2813,348.9375 C525.2813,348.6719 525.1719,348.4063 524.9375,348.2344 C524.7656,348.125 524.625,348.0938 524.1719,348.0938 L519.0313,348.0938 C518.5938,348.0938 518.4688,348.1094 518.3125,348.2031 C518.0625,348.3594 517.9063,348.6563 517.9063,348.9375 C517.9063,349.2188 518.0469,349.4688 518.2656,349.6406 C518.4219,349.75 518.6094,349.7813 519.0313,349.7813 L520.75,349.7813 L520.75,356.2969 L519.0313,356.2969 C518.5938,356.2969 518.4688,356.3125 518.3125,356.4219 C518.0625,356.5781 517.9063,356.8594 517.9063,357.1563 C517.9063,357.4063 518.0469,357.6719 518.2656,357.8281 C518.4219,357.9531 518.625,358 519.0313,358 L524.1719,358 C524.9219,358 525.2813,357.7188 525.2813,357.1563 C525.2813,356.875 525.1719,356.625 524.9375,356.4531 C524.7656,356.3281 524.625,356.2969 524.1719,356.2969 L522.4531,356.2969 L522.4531,349.7813 Z " fill="#000000"/><text fill="#000000" font-family="sans-serif" font-size="14" font-style="italic" lengthAdjust="spacing" textLength="67" x="535.5" y="357.8467">Predicate</text><line style="stroke:#181818;stroke-width:0.5;" x1="507.5" x2="604.5" y1="369" y2="369"/><line style="stroke:#181818;stroke-width:0.5;" x1="507.5" x2="604.5" y1="377" y2="377"/></g><!--MD5=[7295fae20f73c674762dc46e3b5548ce]
class Unary--><g id="elem_Unary"><rect codeLine="40" fill="#F1F1F1" height="64.2969" id="Unary" rx="2.5" ry="2.5" style="stroke:#181818;stroke-width:0.5;" width="119" x="676.5" y="337"/><ellipse cx="712.65" cy="353" fill="#ADD1B2" rx="11" ry="11" style="stroke:#181818;stroke-width:1.0;"/><path d="M714.9938,348.6719 C714.0563,348.2344 713.4625,348.0938 712.5875,348.0938 C709.9625,348.0938 707.9625,350.1719 707.9625,352.8906 L707.9625,354.0156 C707.9625,356.5938 710.0719,358.4844 712.9625,358.4844 C714.1813,358.4844 715.3375,358.1875 716.0875,357.6406 C716.6656,357.2344 716.9938,356.7813 716.9938,356.3906 C716.9938,355.9375 716.6031,355.5469 716.1344,355.5469 C715.9156,355.5469 715.7125,355.625 715.525,355.8125 C715.0719,356.2969 715.0719,356.2969 714.8844,356.3906 C714.4625,356.6563 713.775,356.7813 713.0094,356.7813 C710.9625,356.7813 709.6656,355.6875 709.6656,353.9844 L709.6656,352.8906 C709.6656,351.1094 710.9156,349.7969 712.65,349.7969 C713.2281,349.7969 713.8375,349.9531 714.3063,350.2031 C714.7906,350.4844 714.9625,350.7031 715.0563,351.1094 C715.1188,351.5156 715.15,351.6406 715.2906,351.7656 C715.4313,351.9063 715.6656,352.0156 715.8844,352.0156 C716.15,352.0156 716.4156,351.875 716.5875,351.6563 C716.6969,351.5 716.7281,351.3125 716.7281,350.8906 L716.7281,349.4688 C716.7281,349.0313 716.7125,348.9063 716.6188,348.75 C716.4625,348.4844 716.1813,348.3438 715.8844,348.3438 C715.5875,348.3438 715.3844,348.4375 715.1656,348.75 L714.9938,348.6719 Z " fill="#000000"/><text fill="#000000" font-family="sans-serif" font-size="14" lengthAdjust="spacing" textLength="40" x="731.35" y="357.8467">Unary</text><line style="stroke:#181818;stroke-width:0.5;" x1="677.5" x2="794.5" y1="369" y2="369"/><ellipse cx="687.5" cy="380" fill="none" rx="3" ry="3" style="stroke:#038048;stroke-width:1.0;"/><text fill="#000000" font-family="sans-serif" font-size="14" lengthAdjust="spacing" textLength="93" x="696.5" y="385.9951">name: String</text><line style="stroke:#181818;stroke-width:0.5;" x1="677.5" x2="794.5" y1="393.2969" y2="393.2969"/></g><!--MD5=[2827daddf8db343758d962205411bb3d]
class Nary--><g id="elem_Nary"><rect codeLine="45" fill="#F1F1F1" height="80.5938" id="Nary" rx="2.5" ry="2.5" style="stroke:#181818;stroke-width:0.5;" width="130" x="671" y="220.5"/><ellipse cx="715.75" cy="236.5" fill="#ADD1B2" rx="11" ry="11" style="stroke:#181818;stroke-width:1.0;"/><path d="M718.0938,232.1719 C717.1563,231.7344 716.5625,231.5938 715.6875,231.5938 C713.0625,231.5938 711.0625,233.6719 711.0625,236.3906 L711.0625,237.5156 C711.0625,240.0938 713.1719,241.9844 716.0625,241.9844 C717.2813,241.9844 718.4375,241.6875 719.1875,241.1406 C719.7656,240.7344 720.0938,240.2813 720.0938,239.8906 C720.0938,239.4375 719.7031,239.0469 719.2344,239.0469 C719.0156,239.0469 718.8125,239.125 718.625,239.3125 C718.1719,239.7969 718.1719,239.7969 717.9844,239.8906 C717.5625,240.1563 716.875,240.2813 716.1094,240.2813 C714.0625,240.2813 712.7656,239.1875 712.7656,237.4844 L712.7656,236.3906 C712.7656,234.6094 714.0156,233.2969 715.75,233.2969 C716.3281,233.2969 716.9375,233.4531 717.4063,233.7031 C717.8906,233.9844 718.0625,234.2031 718.1563,234.6094 C718.2188,235.0156 718.25,235.1406 718.3906,235.2656 C718.5313,235.4063 718.7656,235.5156 718.9844,235.5156 C719.25,235.5156 719.5156,235.375 719.6875,235.1563 C719.7969,235 719.8281,234.8125 719.8281,234.3906 L719.8281,232.9688 C719.8281,232.5313 719.8125,232.4063 719.7188,232.25 C719.5625,231.9844 719.2813,231.8438 718.9844,231.8438 C718.6875,231.8438 718.4844,231.9375 718.2656,232.25 L718.0938,232.1719 Z " fill="#000000"/><text fill="#000000" font-family="sans-serif" font-size="14" lengthAdjust="spacing" textLength="32" x="736.25" y="241.3467">Nary</text><line style="stroke:#181818;stroke-width:0.5;" x1="672" x2="800" y1="252.5" y2="252.5"/><ellipse cx="682" cy="263.5" fill="none" rx="3" ry="3" style="stroke:#038048;stroke-width:1.0;"/><text fill="#000000" font-family="sans-serif" font-size="14" lengthAdjust="spacing" textLength="93" x="691" y="269.4951">name: String</text><ellipse cx="682" cy="279.7969" fill="none" rx="3" ry="3" style="stroke:#038048;stroke-width:1.0;"/><text fill="#000000" font-family="sans-serif" font-size="14" lengthAdjust="spacing" textLength="104" x="691" y="285.792">arg: Argument</text><line style="stroke:#181818;stroke-width:0.5;" x1="672" x2="800" y1="293.0938" y2="293.0938"/></g><!--MD5=[9d35236b92952560f647498cf8a29acb]
class Term--><g id="elem_Term"><rect codeLine="51" fill="#F1F1F1" height="48" id="Term" rx="2.5" ry="2.5" style="stroke:#181818;stroke-width:0.5;" width="70" x="1051" y="208"/><ellipse cx="1066" cy="224" fill="#B4A7E5" rx="11" ry="11" style="stroke:#181818;stroke-width:1.0;"/><path d="M1066.9531,220.7813 L1068.6719,220.7813 C1069.0625,220.7813 1069.25,220.75 1069.375,220.6719 C1069.6406,220.5156 1069.7813,220.2344 1069.7813,219.9375 C1069.7813,219.6719 1069.6719,219.4063 1069.4375,219.2344 C1069.2656,219.125 1069.125,219.0938 1068.6719,219.0938 L1063.5313,219.0938 C1063.0938,219.0938 1062.9688,219.1094 1062.8125,219.2031 C1062.5625,219.3594 1062.4063,219.6563 1062.4063,219.9375 C1062.4063,220.2188 1062.5469,220.4688 1062.7656,220.6406 C1062.9219,220.75 1063.1094,220.7813 1063.5313,220.7813 L1065.25,220.7813 L1065.25,227.2969 L1063.5313,227.2969 C1063.0938,227.2969 1062.9688,227.3125 1062.8125,227.4219 C1062.5625,227.5781 1062.4063,227.8594 1062.4063,228.1563 C1062.4063,228.4063 1062.5469,228.6719 1062.7656,228.8281 C1062.9219,228.9531 1063.125,229 1063.5313,229 L1068.6719,229 C1069.4219,229 1069.7813,228.7188 1069.7813,228.1563 C1069.7813,227.875 1069.6719,227.625 1069.4375,227.4531 C1069.2656,227.3281 1069.125,227.2969 1068.6719,227.2969 L1066.9531,227.2969 L1066.9531,220.7813 Z " fill="#000000"/><text fill="#000000" font-family="sans-serif" font-size="14" font-style="italic" lengthAdjust="spacing" textLength="38" x="1080" y="228.8467">Term</text><line style="stroke:#181818;stroke-width:0.5;" x1="1052" x2="1120" y1="240" y2="240"/><line style="stroke:#181818;stroke-width:0.5;" x1="1052" x2="1120" y1="248" y2="248"/></g><!--MD5=[1e667c6ad6db7468aaf1f24fbbf1ec5d]
class Variable--><g id="elem_Variable"><rect codeLine="54" fill="#F1F1F1" height="64.2969" id="Variable" rx="2.5" ry="2.5" style="stroke:#181818;stroke-width:0.5;" width="119" x="1181" y="246"/><ellipse cx="1208.6" cy="262" fill="#ADD1B2" rx="11" ry="11" style="stroke:#181818;stroke-width:1.0;"/><path d="M1210.9438,257.6719 C1210.0063,257.2344 1209.4125,257.0938 1208.5375,257.0938 C1205.9125,257.0938 1203.9125,259.1719 1203.9125,261.8906 L1203.9125,263.0156 C1203.9125,265.5938 1206.0219,267.4844 1208.9125,267.4844 C1210.1313,267.4844 1211.2875,267.1875 1212.0375,266.6406 C1212.6156,266.2344 1212.9438,265.7813 1212.9438,265.3906 C1212.9438,264.9375 1212.5531,264.5469 1212.0844,264.5469 C1211.8656,264.5469 1211.6625,264.625 1211.475,264.8125 C1211.0219,265.2969 1211.0219,265.2969 1210.8344,265.3906 C1210.4125,265.6563 1209.725,265.7813 1208.9594,265.7813 C1206.9125,265.7813 1205.6156,264.6875 1205.6156,262.9844 L1205.6156,261.8906 C1205.6156,260.1094 1206.8656,258.7969 1208.6,258.7969 C1209.1781,258.7969 1209.7875,258.9531 1210.2563,259.2031 C1210.7406,259.4844 1210.9125,259.7031 1211.0063,260.1094 C1211.0688,260.5156 1211.1,260.6406 1211.2406,260.7656 C1211.3813,260.9063 1211.6156,261.0156 1211.8344,261.0156 C1212.1,261.0156 1212.3656,260.875 1212.5375,260.6563 C1212.6469,260.5 1212.6781,260.3125 1212.6781,259.8906 L1212.6781,258.4688 C1212.6781,258.0313 1212.6625,257.9063 1212.5688,257.75 C1212.4125,257.4844 1212.1313,257.3438 1211.8344,257.3438 C1211.5375,257.3438 1211.3344,257.4375 1211.1156,257.75 L1210.9438,257.6719 Z " fill="#000000"/><text fill="#000000" font-family="sans-serif" font-size="14" lengthAdjust="spacing" textLength="59" x="1225.4" y="266.8467">Variable</text><line style="stroke:#181818;stroke-width:0.5;" x1="1182" x2="1299" y1="278" y2="278"/><ellipse cx="1192" cy="289" fill="none" rx="3" ry="3" style="stroke:#038048;stroke-width:1.0;"/><text fill="#000000" font-family="sans-serif" font-size="14" lengthAdjust="spacing" textLength="93" x="1201" y="294.9951">name: String</text><line style="stroke:#181818;stroke-width:0.5;" x1="1182" x2="1299" y1="302.2969" y2="302.2969"/></g><!--MD5=[54b85b6d1a687c59d530998eb343c279]
class Constant--><g id="elem_Constant"><rect codeLine="59" fill="#F1F1F1" height="48" id="Constant" rx="2.5" ry="2.5" style="stroke:#181818;stroke-width:0.5;" width="95" x="1193" y="163"/><ellipse cx="1208" cy="179" fill="#B4A7E5" rx="11" ry="11" style="stroke:#181818;stroke-width:1.0;"/><path d="M1208.9531,175.7813 L1210.6719,175.7813 C1211.0625,175.7813 1211.25,175.75 1211.375,175.6719 C1211.6406,175.5156 1211.7813,175.2344 1211.7813,174.9375 C1211.7813,174.6719 1211.6719,174.4063 1211.4375,174.2344 C1211.2656,174.125 1211.125,174.0938 1210.6719,174.0938 L1205.5313,174.0938 C1205.0938,174.0938 1204.9688,174.1094 1204.8125,174.2031 C1204.5625,174.3594 1204.4063,174.6563 1204.4063,174.9375 C1204.4063,175.2188 1204.5469,175.4688 1204.7656,175.6406 C1204.9219,175.75 1205.1094,175.7813 1205.5313,175.7813 L1207.25,175.7813 L1207.25,182.2969 L1205.5313,182.2969 C1205.0938,182.2969 1204.9688,182.3125 1204.8125,182.4219 C1204.5625,182.5781 1204.4063,182.8594 1204.4063,183.1563 C1204.4063,183.4063 1204.5469,183.6719 1204.7656,183.8281 C1204.9219,183.9531 1205.125,184 1205.5313,184 L1210.6719,184 C1211.4219,184 1211.7813,183.7188 1211.7813,183.1563 C1211.7813,182.875 1211.6719,182.625 1211.4375,182.4531 C1211.2656,182.3281 1211.125,182.2969 1210.6719,182.2969 L1208.9531,182.2969 L1208.9531,175.7813 Z " fill="#000000"/><text fill="#000000" font-family="sans-serif" font-size="14" font-style="italic" lengthAdjust="spacing" textLength="63" x="1222" y="183.8467">Constant</text><line style="stroke:#181818;stroke-width:0.5;" x1="1194" x2="1287" y1="195" y2="195"/><line style="stroke:#181818;stroke-width:0.5;" x1="1194" x2="1287" y1="203" y2="203"/></g><!--MD5=[435987a092acd998883c72f97c5c9408]
class Number--><g id="elem_Number"><rect codeLine="62" fill="#F1F1F1" height="64.2969" id="Number" rx="2.5" ry="2.5" style="stroke:#181818;stroke-width:0.5;" width="108" x="1365.5" y="219"/><ellipse cx="1389.05" cy="235" fill="#ADD1B2" rx="11" ry="11" style="stroke:#181818;stroke-width:1.0;"/><path d="M1391.3938,230.6719 C1390.4563,230.2344 1389.8625,230.0938 1388.9875,230.0938 C1386.3625,230.0938 1384.3625,232.1719 1384.3625,234.8906 L1384.3625,236.0156 C1384.3625,238.5938 1386.4719,240.4844 1389.3625,240.4844 C1390.5813,240.4844 1391.7375,240.1875 1392.4875,239.6406 C1393.0656,239.2344 1393.3938,238.7813 1393.3938,238.3906 C1393.3938,237.9375 1393.0031,237.5469 1392.5344,237.5469 C1392.3156,237.5469 1392.1125,237.625 1391.925,237.8125 C1391.4719,238.2969 1391.4719,238.2969 1391.2844,238.3906 C1390.8625,238.6563 1390.175,238.7813 1389.4094,238.7813 C1387.3625,238.7813 1386.0656,237.6875 1386.0656,235.9844 L1386.0656,234.8906 C1386.0656,233.1094 1387.3156,231.7969 1389.05,231.7969 C1389.6281,231.7969 1390.2375,231.9531 1390.7063,232.2031 C1391.1906,232.4844 1391.3625,232.7031 1391.4563,233.1094 C1391.5188,233.5156 1391.55,233.6406 1391.6906,233.7656 C1391.8313,233.9063 1392.0656,234.0156 1392.2844,234.0156 C1392.55,234.0156 1392.8156,233.875 1392.9875,233.6563 C1393.0969,233.5 1393.1281,233.3125 1393.1281,232.8906 L1393.1281,231.4688 C1393.1281,231.0313 1393.1125,230.9063 1393.0188,230.75 C1392.8625,230.4844 1392.5813,230.3438 1392.2844,230.3438 C1391.9875,230.3438 1391.7844,230.4375 1391.5656,230.75 L1391.3938,230.6719 Z " fill="#000000"/><text fill="#000000" font-family="sans-serif" font-size="14" lengthAdjust="spacing" textLength="57" x="1404.95" y="239.8467">Number</text><line style="stroke:#181818;stroke-width:0.5;" x1="1366.5" x2="1472.5" y1="251" y2="251"/><ellipse cx="1376.5" cy="262" fill="none" rx="3" ry="3" style="stroke:#038048;stroke-width:1.0;"/><text fill="#000000" font-family="sans-serif" font-size="14" lengthAdjust="spacing" textLength="82" x="1385.5" y="267.9951">value: Float</text><line style="stroke:#181818;stroke-width:0.5;" x1="1366.5" x2="1472.5" y1="275.2969" y2="275.2969"/></g><!--MD5=[b13f0f3a4629b291b71b7010093425b4]
class Functor--><g id="elem_Functor"><rect codeLine="67" fill="#F1F1F1" height="64.2969" id="Functor" rx="2.5" ry="2.5" style="stroke:#181818;stroke-width:0.5;" width="119" x="1360" y="120"/><ellipse cx="1389.4" cy="136" fill="#ADD1B2" rx="11" ry="11" style="stroke:#181818;stroke-width:1.0;"/><path d="M1391.7438,131.6719 C1390.8063,131.2344 1390.2125,131.0938 1389.3375,131.0938 C1386.7125,131.0938 1384.7125,133.1719 1384.7125,135.8906 L1384.7125,137.0156 C1384.7125,139.5938 1386.8219,141.4844 1389.7125,141.4844 C1390.9313,141.4844 1392.0875,141.1875 1392.8375,140.6406 C1393.4156,140.2344 1393.7438,139.7813 1393.7438,139.3906 C1393.7438,138.9375 1393.3531,138.5469 1392.8844,138.5469 C1392.6656,138.5469 1392.4625,138.625 1392.275,138.8125 C1391.8219,139.2969 1391.8219,139.2969 1391.6344,139.3906 C1391.2125,139.6563 1390.525,139.7813 1389.7594,139.7813 C1387.7125,139.7813 1386.4156,138.6875 1386.4156,136.9844 L1386.4156,135.8906 C1386.4156,134.1094 1387.6656,132.7969 1389.4,132.7969 C1389.9781,132.7969 1390.5875,132.9531 1391.0563,133.2031 C1391.5406,133.4844 1391.7125,133.7031 1391.8063,134.1094 C1391.8688,134.5156 1391.9,134.6406 1392.0406,134.7656 C1392.1813,134.9063 1392.4156,135.0156 1392.6344,135.0156 C1392.9,135.0156 1393.1656,134.875 1393.3375,134.6563 C1393.4469,134.5 1393.4781,134.3125 1393.4781,133.8906 L1393.4781,132.4688 C1393.4781,132.0313 1393.4625,131.9063 1393.3688,131.75 C1393.2125,131.4844 1392.9313,131.3438 1392.6344,131.3438 C1392.3375,131.3438 1392.1344,131.4375 1391.9156,131.75 L1391.7438,131.6719 Z " fill="#000000"/><text fill="#000000" font-family="sans-serif" font-size="14" lengthAdjust="spacing" textLength="55" x="1406.6" y="140.8467">Functor</text><line style="stroke:#181818;stroke-width:0.5;" x1="1361" x2="1478" y1="152" y2="152"/><ellipse cx="1371" cy="163" fill="none" rx="3" ry="3" style="stroke:#038048;stroke-width:1.0;"/><text fill="#000000" font-family="sans-serif" font-size="14" lengthAdjust="spacing" textLength="93" x="1380" y="168.9951">name: String</text><line style="stroke:#181818;stroke-width:0.5;" x1="1361" x2="1478" y1="176.2969" y2="176.2969"/></g><!--MD5=[ef7aeb3cbdbc76daa05bef4975edfba0]
class Argument--><g id="elem_Argument"><rect codeLine="71" fill="#F1F1F1" height="80.5938" id="Argument" rx="2.5" ry="2.5" style="stroke:#181818;stroke-width:0.5;" width="130" x="861" y="238.5"/><ellipse cx="887.7" cy="254.5" fill="#ADD1B2" rx="11" ry="11" style="stroke:#181818;stroke-width:1.0;"/><path d="M890.0438,250.1719 C889.1063,249.7344 888.5125,249.5938 887.6375,249.5938 C885.0125,249.5938 883.0125,251.6719 883.0125,254.3906 L883.0125,255.5156 C883.0125,258.0938 885.1219,259.9844 888.0125,259.9844 C889.2313,259.9844 890.3875,259.6875 891.1375,259.1406 C891.7156,258.7344 892.0438,258.2813 892.0438,257.8906 C892.0438,257.4375 891.6531,257.0469 891.1844,257.0469 C890.9656,257.0469 890.7625,257.125 890.575,257.3125 C890.1219,257.7969 890.1219,257.7969 889.9344,257.8906 C889.5125,258.1563 888.825,258.2813 888.0594,258.2813 C886.0125,258.2813 884.7156,257.1875 884.7156,255.4844 L884.7156,254.3906 C884.7156,252.6094 885.9656,251.2969 887.7,251.2969 C888.2781,251.2969 888.8875,251.4531 889.3563,251.7031 C889.8406,251.9844 890.0125,252.2031 890.1063,252.6094 C890.1688,253.0156 890.2,253.1406 890.3406,253.2656 C890.4813,253.4063 890.7156,253.5156 890.9344,253.5156 C891.2,253.5156 891.4656,253.375 891.6375,253.1563 C891.7469,253 891.7781,252.8125 891.7781,252.3906 L891.7781,250.9688 C891.7781,250.5313 891.7625,250.4063 891.6688,250.25 C891.5125,249.9844 891.2313,249.8438 890.9344,249.8438 C890.6375,249.8438 890.4344,249.9375 890.2156,250.25 L890.0438,250.1719 Z " fill="#000000"/><text fill="#000000" font-family="sans-serif" font-size="14" lengthAdjust="spacing" textLength="72" x="904.3" y="259.3467">Argument</text><line style="stroke:#181818;stroke-width:0.5;" x1="862" x2="990" y1="270.5" y2="270.5"/><ellipse cx="872" cy="281.5" fill="none" rx="3" ry="3" style="stroke:#038048;stroke-width:1.0;"/><text fill="#000000" font-family="sans-serif" font-size="14" lengthAdjust="spacing" textLength="83" x="881" y="287.4951">term: Term</text><ellipse cx="872" cy="297.7969" fill="none" rx="3" ry="3" style="stroke:#038048;stroke-width:1.0;"/><text fill="#000000" font-family="sans-serif" font-size="14" lengthAdjust="spacing" textLength="104" x="881" y="303.792">arg: Argument</text><line style="stroke:#181818;stroke-width:0.5;" x1="862" x2="990" y1="311.0938" y2="311.0938"/></g><!--MD5=[d864bf3ef9858d6f776ae5e9ea097d48]
reverse link Clause to Expression--><g id="link_Clause_Expression"><path codeLine="21" d="M418.283,225.792 C444.349,211.73 475.039,193.481 500.73,176.75 " fill="none" id="Clause-backto-Expression" style="stroke:#181818;stroke-width:1.0;"/><polygon fill="none" points="421.227,232.152,400.259,235.209,414.744,219.743,421.227,232.152" style="stroke:#181818;stroke-width:1.0;"/></g><!--MD5=[870efa784a27598a11a3c5d5759c1aa9]
reverse link Expression to Clause--><g id="link_Expression_Clause"><path codeLine="80" d="M489.024,159.243 C453.552,178.774 411.893,204.623 385.965,223.797 " fill="none" id="Expression-backto-Clause" style="stroke:#181818;stroke-width:1.0;"/><polygon fill="#181818" points="500.785,152.88,493.6045,152.2167,490.2305,158.5898,497.411,159.2531,500.785,152.88" style="stroke:#181818;stroke-width:1.0;"/><text fill="#000000" font-family="sans-serif" font-size="13" lengthAdjust="spacing" textLength="8" x="383.5935" y="212.757">2</text></g><!--MD5=[aa95247674993a2832e4b1e263ced2d2]
reverse link Clause to Literal--><g id="link_Clause_Literal"><path codeLine="28" d="M420.436,257.191 C452.04,262.078 489.936,267.939 517.448,272.193 " fill="none" id="Clause-backto-Literal" style="stroke:#181818;stroke-width:1.0;"/><polygon fill="none" points="418.954,264.045,400.259,254.071,421.094,250.21,418.954,264.045" style="stroke:#181818;stroke-width:1.0;"/></g><!--MD5=[fd03a261c1bd0d1bd48509bec517d088]
reverse link Literal to Negation--><g id="link_Literal_Negation"><path codeLine="31" d="M598.589,240.15 C629.236,212.257 670.475,174.725 699.562,148.253 " fill="none" id="Literal-backto-Negation" style="stroke:#181818;stroke-width:1.0;"/><polygon fill="none" points="603.151,245.462,583.648,253.747,593.728,235.108,603.151,245.462" style="stroke:#181818;stroke-width:1.0;"/></g><!--MD5=[d50693d7f0e6da432a795048dc81d4d6]
reverse link Clause to Predicate--><g id="link_Clause_Predicate"><path codeLine="36" d="M417.94,281.166 C448.664,299.062 485.892,320.746 513.791,336.997 " fill="none" id="Clause-backto-Predicate" style="stroke:#181818;stroke-width:1.0;"/><polygon fill="none" points="414.018,286.982,400.259,270.867,421.064,274.885,414.018,286.982" style="stroke:#181818;stroke-width:1.0;"/></g><!--MD5=[11b9cb7f92bdd08e283214c045aaa81f]
reverse link Predicate to Unary--><g id="link_Predicate_Unary"><path codeLine="39" d="M625.697,364.087 C642.394,364.838 660.098,365.634 676.285,366.361 " fill="none" id="Predicate-backto-Unary" style="stroke:#181818;stroke-width:1.0;"/><polygon fill="none" points="625.305,371.077,605.639,363.186,625.933,357.091,625.305,371.077" style="stroke:#181818;stroke-width:1.0;"/></g><!--MD5=[760c1b64fc0b3fda4a8af94887958d8c]
reverse link Predicate to Nary--><g id="link_Predicate_Nary"><path codeLine="44" d="M617.583,326.965 C634.712,317.342 653.409,306.838 670.746,297.098 " fill="none" id="Predicate-backto-Nary" style="stroke:#181818;stroke-width:1.0;"/><polygon fill="none" points="620.954,333.1,600.089,336.793,614.097,320.894,620.954,333.1" style="stroke:#181818;stroke-width:1.0;"/></g><!--MD5=[446d25762469540ba30132cef137862a]
reverse link Predicate to Term--><g id="link_Predicate_Term"><path codeLine="50" d="M608.299,323.084 C609.228,322.067 610.129,321.039 611,320 C648.541,275.214 621.133,233.469 671,203 C793.351,128.243 975.649,187.233 1050.76,217.209 " fill="none" id="Predicate-backto-Term" style="stroke:#181818;stroke-width:1.0;"/><polygon fill="none" points="612.955,328.314,593.555,336.838,603.405,318.077,612.955,328.314" style="stroke:#181818;stroke-width:1.0;"/></g><!--MD5=[faf77a449e9d7daf85f75e0a60bcfb63]
reverse link Term to Variable--><g id="link_Term_Variable"><path codeLine="53" d="M1140.62,248.175 C1153.63,252.099 1167.61,256.314 1180.83,260.304 " fill="none" id="Term-backto-Variable" style="stroke:#181818;stroke-width:1.0;"/><polygon fill="none" points="1138.35,254.801,1121.22,242.323,1142.39,241.397,1138.35,254.801" style="stroke:#181818;stroke-width:1.0;"/></g><!--MD5=[22dcc2a6458fba43153ab5c044b6d0f2]
reverse link Term to Constant--><g id="link_Term_Constant"><path codeLine="58" d="M1140.62,216.179 C1157.69,211.141 1176.43,205.612 1192.96,200.734 " fill="none" id="Term-backto-Constant" style="stroke:#181818;stroke-width:1.0;"/><polygon fill="none" points="1142.39,222.955,1121.22,221.901,1138.43,209.527,1142.39,222.955" style="stroke:#181818;stroke-width:1.0;"/></g><!--MD5=[a01caca88a1124f4b8b78740f81cfeb2]
reverse link Constant to Number--><g id="link_Constant_Number"><path codeLine="61" d="M1306.96,210.671 C1326.22,217.634 1347.04,225.163 1365.42,231.809 " fill="none" id="Constant-backto-Number" style="stroke:#181818;stroke-width:1.0;"/><polygon fill="none" points="1304.43,217.199,1288,203.815,1309.19,204.033,1304.43,217.199" style="stroke:#181818;stroke-width:1.0;"/></g><!--MD5=[656b5040e0b18a407fb64c0398c2ba54]
reverse link Constant to Functor--><g id="link_Constant_Functor"><path codeLine="66" d="M1307.77,173.896 C1324.9,170.508 1343.23,166.884 1359.94,163.579 " fill="none" id="Constant-backto-Functor" style="stroke:#181818;stroke-width:1.0;"/><polygon fill="none" points="1308.98,180.791,1288,177.804,1306.27,167.057,1308.98,180.791" style="stroke:#181818;stroke-width:1.0;"/></g><!--MD5=[8b609b67e3a86ce76ead39b3ebe2a5fb]
reverse link DatalogFormula to DefinitionClause--><g id="link_DatalogFormula_DefinitionClause"><path codeLine="76" d="M232.05,328.852 C247.634,332.307 263.585,335.844 278.688,339.192 " fill="none" id="DatalogFormula-backto-DefinitionClause" style="stroke:#181818;stroke-width:1.0;"/><polygon fill="#181818" points="219.073,325.974,224.0648,331.1781,230.7884,328.5719,225.7967,323.3678,219.073,325.974" style="stroke:#181818;stroke-width:1.0;"/><text fill="#000000" font-family="sans-serif" font-size="13" lengthAdjust="spacing" textLength="8" x="263.0899" y="350.3648">1</text></g><!--MD5=[d50086c959be0c9d01dc39a4018a7312]
reverse link DatalogFormula to Clause--><g id="link_DatalogFormula_Clause"><path codeLine="77" d="M231.791,281.283 C262.826,273.163 295.347,264.654 319.738,258.273 " fill="none" id="DatalogFormula-backto-Clause" style="stroke:#181818;stroke-width:1.0;"/><polygon fill="#181818" points="219.073,284.611,225.8902,286.9616,230.6821,281.5729,223.8648,279.2223,219.073,284.611" style="stroke:#181818;stroke-width:1.0;"/><text fill="#000000" font-family="sans-serif" font-size="13" lengthAdjust="spacing" textLength="8" x="304.1305" y="273.406">1</text></g><!--MD5=[1d7ac470d5d24d8f6546bed70dc2f465]
reverse link DefinitionClause to Argument--><g id="link_DefinitionClause_Argument"><path codeLine="78" d="M453.734,398.3679 C545.748,433.0443 688.854,469.4807 801,419 C846.003,398.7426 881.28,353.185 902.515,319.513 " fill="none" id="DefinitionClause-backto-Argument" style="stroke:#181818;stroke-width:1.0;"/><polygon fill="#181818" points="441.378,393.606,445.5385,399.4959,452.5754,397.9208,448.415,392.0309,441.378,393.606" style="stroke:#181818;stroke-width:1.0;"/><text fill="#000000" font-family="sans-serif" font-size="13" lengthAdjust="spacing" textLength="21" x="876.0986" y="339.2749">0-1</text></g><!--MD5=[898fd6690241d2fa27a78e29eb5bd039]
reverse link Argument to Argument--><g id="link_Argument_Argument"><path codeLine="79" d="M896.679,224.961 C899.234,212.583 909.008,203.5 926,203.5 C948.656,203.5 958.48,219.648 955.471,238.224 " fill="none" id="Argument-backto-Argument" style="stroke:#181818;stroke-width:1.0;"/><polygon fill="#181818" points="896.529,238.224,900.596,232.2692,896.6635,226.2248,892.5965,232.1795,896.529,238.224" style="stroke:#181818;stroke-width:1.0;"/><text fill="#000000" font-family="sans-serif" font-size="13" lengthAdjust="spacing" textLength="21" x="937.6131" y="227.3398">0-1</text></g><!--MD5=[eedf887e1bd243d89b2e805e535924c6]
reverse link Argument to Term--><g id="link_Argument_Term"><path codeLine="81" d="M1003.78,256.162 C1020.23,251.267 1036.81,246.334 1050.67,242.213 " fill="none" id="Argument-backto-Term" style="stroke:#181818;stroke-width:1.0;"/><polygon fill="#181818" points="991.26,259.883,998.1504,262.0095,1002.7635,256.467,995.8731,254.3405,991.26,259.883" style="stroke:#181818;stroke-width:1.0;"/><text fill="#000000" font-family="sans-serif" font-size="13" lengthAdjust="spacing" textLength="8" x="1034.9269" y="257.7802">1</text></g><!--MD5=[38f2f03b155c4033b67f1ddf16454734]
reverse link Nary to Argument--><g id="link_Nary_Argument"><path codeLine="82" d="M814.503,268.42 C829.899,269.895 845.904,271.427 860.797,272.853 " fill="none" id="Nary-backto-Argument" style="stroke:#181818;stroke-width:1.0;"/><polygon fill="#181818" points="801.173,267.144,806.7641,271.698,813.1183,268.2886,807.5272,263.7345,801.173,267.144" style="stroke:#181818;stroke-width:1.0;"/><text fill="#000000" font-family="sans-serif" font-size="13" lengthAdjust="spacing" textLength="8" x="844.7954" y="285.1075">1</text></g><!--MD5=[473ed8bce47797c4faa5a64e73655390]
reverse link Negation to Clause--><g id="link_Negation_Clause"><path codeLine="83" d="M685.41,155.795 C663.694,171.42 637.218,188.171 611,199 C540.075,228.295 450.456,240.389 400.059,245.141 " fill="none" id="Negation-backto-Clause" style="stroke:#181818;stroke-width:1.0;"/><polygon fill="#181818" points="695.986,148.006,688.7828,148.3438,686.3242,155.1228,693.5274,154.785,695.986,148.006" style="stroke:#181818;stroke-width:1.0;"/><text fill="#000000" font-family="sans-serif" font-size="13" lengthAdjust="spacing" textLength="8" x="407.907" y="258.0464">1</text></g><!--MD5=[71e05237ad2cbbac27a487dc40567891]
@startuml
left to right direction
'top to bottom direction

package datalog{

  package grammar{

    class DatalogFormula{
      + lhs: DefinitionClause
      + rhs: Clause
      + op: String
    }

    class DefinitionClause{
      + predication: String
      + arg: Argument
    }

    interface Clause{}

    Clause <|- - Expression
    class Expression{
      + lhs: Clause
      + rhs: Clause
      + op: String
    }

    Clause <|- - Literal
    interface Literal{}
    
    Literal <|- - Negation
    class Negation{
      + clause: Clause
    }

    Clause <|- - Predicate
    interface Predicate{}

    Predicate <|- - Unary
    class Unary{
      + name: String
    }

    Predicate <|- - Nary
    class Nary{
      + name: String
      + arg: Argument
    }

    Predicate <|- - Term
    interface Term{}

    Term <|- - Variable
    class Variable{
      + name: String
    }

    Term <|- - Constant
    interface Constant{}

    Constant <|- - Number
    class Number{
      + value: Float
    }

    Constant <|- - Functor
    class Functor{
      + name: String
    }

    class Argument{
      + term: Term
      + arg: Argument
    }

    DatalogFormula *- - "1" DefinitionClause
    DatalogFormula *- - "1" Clause
    DefinitionClause *- - "0-1" Argument
    Argument *- - "0-1" Argument
    Expression *- - "2" Clause
    Argument *- - "1" Term
    Nary *- - "1" Argument
    Negation *- - "1" Clause
    
  }
}
@enduml

@startuml
left to right direction

package datalog{

  package grammar{

    class DatalogFormula{
      + lhs: DefinitionClause
      + rhs: Clause
      + op: String
    }

    class DefinitionClause{
      + predication: String
      + arg: Argument
    }

    interface Clause{}

    Clause <|- - Expression
    class Expression{
      + lhs: Clause
      + rhs: Clause
      + op: String
    }

    Clause <|- - Literal
    interface Literal{}
    
    Literal <|- - Negation
    class Negation{
      + clause: Clause
    }

    Clause <|- - Predicate
    interface Predicate{}

    Predicate <|- - Unary
    class Unary{
      + name: String
    }

    Predicate <|- - Nary
    class Nary{
      + name: String
      + arg: Argument
    }

    Predicate <|- - Term
    interface Term{}

    Term <|- - Variable
    class Variable{
      + name: String
    }

    Term <|- - Constant
    interface Constant{}

    Constant <|- - Number
    class Number{
      + value: Float
    }

    Constant <|- - Functor
    class Functor{
      + name: String
    }

    class Argument{
      + term: Term
      + arg: Argument
    }

    DatalogFormula *- - "1" DefinitionClause
    DatalogFormula *- - "1" Clause
    DefinitionClause *- - "0-1" Argument
    Argument *- - "0-1" Argument
    Expression *- - "2" Clause
    Argument *- - "1" Term
    Nary *- - "1" Argument
    Negation *- - "1" Clause
    
  }
}
@enduml

PlantUML version 1.2022.2(Sat Mar 05 16:30:19 UTC 2022)
(GPL source distribution)
Java Runtime: Java(TM) SE Runtime Environment
JVM: Java HotSpot(TM) 64-Bit Server VM
Default Encoding: UTF-8
Language: en
Country: US
--></g></svg>